<?xml version="1.0" standalone="no"?><!-- Generator: Gravit.io --><svg xmlns="http://www.w3.org/2000/svg" xmlns:xlink="http://www.w3.org/1999/xlink" style="isolation:isolate" viewBox="0 0 39.188 35.428" width="39.188" height="35.428"><defs><clipPath id="_clipPath_v1m85ntsOarmfmhcE81oty8IJeBzxYx1"><rect width="39.188" height="35.428"/></clipPath></defs><g clip-path="url(#_clipPath_v1m85ntsOarmfmhcE81oty8IJeBzxYx1)"><g style="isolation:isolate" id="アイコン"><g id="帽子くん"><path d=" M 30.453 9.711 C 30.713 10.658 30.851 11.655 30.851 12.683 C 30.851 16.681 28.756 20.205 25.616 22.208 M 13.567 22.223 C 13.186 21.983 12.821 21.721 12.474 21.439 C 9.923 19.372 8.289 16.219 8.289 12.683 C 8.289 11.655 8.427 10.658 8.688 9.711 M 25.614 22.208 C 33.228 23.999 38.762 29.118 38.938 35.178 L 0.25 35.178 C 0.426 29.121 5.966 24.017 13.574 22.224" fill-rule="evenodd" fill="none" vector-effect="non-scaling-stroke" stroke-width="0.5" stroke="rgb(0,0,0)" stroke-linejoin="miter" stroke-linecap="round" stroke-miterlimit="3"/><g id="顔"><mask id="_mask_jnSRV5OQI70WR9SjtqydHFSnuR865xML"><path d=" M 15.258 13.235 C 15.258 13.719 15.657 14.112 16.149 14.112 C 16.642 14.112 17.041 13.719 17.041 13.235 C 17.041 12.751 16.642 12.358 16.149 12.358 C 15.657 12.358 15.258 12.751 15.258 13.235 Z " fill="white" stroke="none"/></mask><path d=" M 15.258 13.235 C 15.258 13.719 15.657 14.112 16.149 14.112 C 16.642 14.112 17.041 13.719 17.041 13.235 C 17.041 12.751 16.642 12.358 16.149 12.358 C 15.657 12.358 15.258 12.751 15.258 13.235 Z " fill="rgb(255,255,255)" mask="url(#_mask_jnSRV5OQI70WR9SjtqydHFSnuR865xML)" vector-effect="non-scaling-stroke" stroke-width="2" stroke="rgb(0,0,0)" stroke-linejoin="miter" stroke-linecap="butt" stroke-miterlimit="3"/><mask id="_mask_2TARn1luBsjQlINLirLVg1vhxGzINjya"><path d=" M 21.895 13.235 C 21.895 13.719 22.295 14.112 22.787 14.112 C 23.279 14.112 23.678 13.719 23.678 13.235 C 23.678 12.751 23.279 12.358 22.787 12.358 C 22.295 12.358 21.895 12.751 21.895 13.235 Z " fill="white" stroke="none"/></mask><path d=" M 21.895 13.235 C 21.895 13.719 22.295 14.112 22.787 14.112 C 23.279 14.112 23.678 13.719 23.678 13.235 C 23.678 12.751 23.279 12.358 22.787 12.358 C 22.295 12.358 21.895 12.751 21.895 13.235 Z " fill="rgb(255,255,255)" mask="url(#_mask_2TARn1luBsjQlINLirLVg1vhxGzINjya)" vector-effect="non-scaling-stroke" stroke-width="2" stroke="rgb(0,0,0)" stroke-linejoin="miter" stroke-linecap="butt" stroke-miterlimit="3"/><path d=" M 17.583 18.282 Q 18.95 19.054 19.711 19.03 Q 20.41 19.008 21.661 18.282" fill="none" vector-effect="non-scaling-stroke" stroke-width="0.5" stroke="rgb(0,0,0)" stroke-linejoin="miter" stroke-linecap="round" stroke-miterlimit="3"/></g><path d=" M 7.63 9.779 L 31.282 9.698 M 17.934 0.435 Q 14.819 2.493 13.624 4.104 Q 12.817 5.19 11.833 7.496 M 19.466 0.429 L 19.466 4.104 L 19.466 6.648 M 21.718 0.45 Q 24.832 2.65 26.061 4.292 Q 26.881 5.387 27.946 7.684 M 7.553 9.701 Q 9.889 7.062 19.763 6.975 Q 29.636 6.888 31.439 9.701 M 7.555 9.573 C 8.874 4.251 13.827 0.25 19.553 0.25 C 25.28 0.25 30.086 4.216 31.405 9.538" fill-rule="evenodd" fill="none" vector-effect="non-scaling-stroke" stroke-width="0.5" stroke="rgb(0,0,0)" stroke-linejoin="miter" stroke-linecap="round" stroke-miterlimit="3"/></g><path d=" M 15.775 13.216 C 15.775 13.016 15.937 12.854 16.137 12.854 C 16.336 12.854 16.498 13.016 16.498 13.216 C 16.498 13.415 16.336 13.577 16.137 13.577 C 15.937 13.577 15.775 13.415 15.775 13.216 Z " fill="rgb(0,0,0)"/><path d=" M 22.284 13.216 C 22.284 13.016 22.446 12.854 22.646 12.854 C 22.845 12.854 23.007 13.016 23.007 13.216 C 23.007 13.415 22.845 13.577 22.646 13.577 C 22.446 13.577 22.284 13.415 22.284 13.216 Z " fill="rgb(0,0,0)"/></g><g style="isolation:isolate" id="実績"/></g></svg>