<?xml version="1.0" standalone="no"?><!-- Generator: Gravit.io --><svg xmlns="http://www.w3.org/2000/svg" xmlns:xlink="http://www.w3.org/1999/xlink" style="isolation:isolate" viewBox="0 0 39.188 35.428" width="39.188" height="35.428"><defs><clipPath id="_clipPath_EuwbOgOh9OjJu9GJsujLPWB9uzXMt7rl"><rect width="39.188" height="35.428"/></clipPath></defs><g clip-path="url(#_clipPath_EuwbOgOh9OjJu9GJsujLPWB9uzXMt7rl)"><g style="isolation:isolate" id="アイコン"><g id="メール"><path d=" M 23.803 13.568 C 22.952 10.574 21.408 8.585 19.647 8.585 C 17.88 8.585 16.331 10.589 15.473 13.589" fill="none" vector-effect="non-scaling-stroke" stroke-width="0.5" stroke="rgb(0,0,0)" stroke-linejoin="miter" stroke-linecap="round" stroke-miterlimit="3"/><path d=" M 15.444 13.572 C 12.585 11.878 10.446 11.128 8.117 9.232 C 5.78 7.329 3.441 2.403 2.365 2.911 C 1.29 3.419 0.637 4.671 1.328 8.632 C 1.552 9.916 1.159 11.005 1.905 11.926 C 2.496 12.656 2.475 14.998 3.353 15.744 C 4.137 16.411 4.824 16.225 5.399 16.817 C 5.924 17.355 6.019 18.539 6.539 19.082" fill="none" vector-effect="non-scaling-stroke" stroke-width="0.5" stroke="rgb(0,0,0)" stroke-linejoin="miter" stroke-linecap="round" stroke-miterlimit="3"/><path d=" M 23.861 13.531 C 26.721 11.838 28.738 11.108 31.068 9.213 C 33.406 7.31 35.746 2.386 36.822 2.893 C 37.898 3.401 38.551 4.653 37.86 8.613 C 37.636 9.897 38.029 10.985 37.283 11.906 C 36.692 12.636 36.712 14.977 35.834 15.723 C 35.049 16.39 34.363 16.204 33.787 16.796 C 33.356 17.238 33.018 18.393 32.727 18.895" fill="none" vector-effect="non-scaling-stroke" stroke-width="0.5" stroke="rgb(0,0,0)" stroke-linejoin="miter" stroke-linecap="round" stroke-miterlimit="3"/><mask id="_mask_nhNIe3OmqLdF4RJwFWYOuazx3xCfbIp0"><path d=" M 6.558 18.201 C 7.015 18.201 32.308 18.201 32.719 18.201 C 33.129 18.201 33.083 32.571 32.719 32.571 C 32.354 32.571 6.922 32.571 6.558 32.571 C 6.194 32.571 6.102 18.201 6.558 18.201 Z " fill="white" stroke="none"/></mask><path d=" M 6.558 18.201 C 7.015 18.201 32.308 18.201 32.719 18.201 C 33.129 18.201 33.083 32.571 32.719 32.571 C 32.354 32.571 6.922 32.571 6.558 32.571 C 6.194 32.571 6.102 18.201 6.558 18.201 Z " fill="none" mask="url(#_mask_nhNIe3OmqLdF4RJwFWYOuazx3xCfbIp0)" vector-effect="non-scaling-stroke" stroke-width="1" stroke="rgb(0,0,0)" stroke-linejoin="miter" stroke-linecap="square" stroke-miterlimit="3"/><mask id="_mask_0jnbyINhuCc11zzxWfTrThDLfCEBFNic"><path d=" M 32.477 18.575 C 25.437 24.724 20.942 27.985 19.638 27.985 C 18.504 27.985 13.74 24.65 6.589 18.55" fill="white" stroke="none"/></mask><path d=" M 32.477 18.575 C 25.437 24.724 20.942 27.985 19.638 27.985 C 18.504 27.985 13.74 24.65 6.589 18.55" fill="none" mask="url(#_mask_0jnbyINhuCc11zzxWfTrThDLfCEBFNic)" vector-effect="non-scaling-stroke" stroke-width="1" stroke="rgb(0,0,0)" stroke-linejoin="miter" stroke-linecap="square" stroke-miterlimit="3"/><mask id="_mask_3pno3uh3ecaujpB0AEhHSFML3woqld0H"><path d=" M 17.518 12.466 C 17.518 12.739 17.751 12.96 18.037 12.96 C 18.324 12.96 18.557 12.739 18.557 12.466 C 18.557 12.194 18.324 11.972 18.037 11.972 C 17.751 11.972 17.518 12.194 17.518 12.466 Z " fill="white" stroke="none"/></mask><path d=" M 17.518 12.466 C 17.518 12.739 17.751 12.96 18.037 12.96 C 18.324 12.96 18.557 12.739 18.557 12.466 C 18.557 12.194 18.324 11.972 18.037 11.972 C 17.751 11.972 17.518 12.194 17.518 12.466 Z " fill="rgb(255,255,255)" mask="url(#_mask_3pno3uh3ecaujpB0AEhHSFML3woqld0H)" vector-effect="non-scaling-stroke" stroke-width="1" stroke="rgb(0,0,0)" stroke-linejoin="miter" stroke-linecap="butt" stroke-miterlimit="3"/><mask id="_mask_pE8uu6q96QRKKIw56g6gkLyg2yMgn2ab"><path d=" M 20.874 12.466 C 20.874 12.739 21.106 12.96 21.393 12.96 C 21.68 12.96 21.912 12.739 21.912 12.466 C 21.912 12.194 21.68 11.972 21.393 11.972 C 21.106 11.972 20.874 12.194 20.874 12.466 Z " fill="white" stroke="none"/></mask><path d=" M 20.874 12.466 C 20.874 12.739 21.106 12.96 21.393 12.96 C 21.68 12.96 21.912 12.739 21.912 12.466 C 21.912 12.194 21.68 11.972 21.393 11.972 C 21.106 11.972 20.874 12.194 20.874 12.466 Z " fill="rgb(255,255,255)" mask="url(#_mask_pE8uu6q96QRKKIw56g6gkLyg2yMgn2ab)" vector-effect="non-scaling-stroke" stroke-width="1" stroke="rgb(0,0,0)" stroke-linejoin="miter" stroke-linecap="butt" stroke-miterlimit="3"/><path d=" M 17.994 14.286 Q 18.893 16.916 19.535 17.022 Q 20.25 17.14 21.283 14.286" fill="none" vector-effect="non-scaling-stroke" stroke-width="0.5" stroke="rgb(0,0,0)" stroke-linejoin="miter" stroke-linecap="round" stroke-miterlimit="3"/></g></g><g style="isolation:isolate" id="実績"/></g></svg>