<?xml version="1.0" standalone="no"?><!-- Generator: Gravit.io --><svg xmlns="http://www.w3.org/2000/svg" xmlns:xlink="http://www.w3.org/1999/xlink" style="isolation:isolate" viewBox="0 0 41.548 33.444" width="41.548" height="33.444"><defs><clipPath id="_clipPath_zhP9rLAikvMoqFu3C44ouoT3gUOQTjBJ"><rect width="41.548" height="33.444"/></clipPath></defs><g clip-path="url(#_clipPath_zhP9rLAikvMoqFu3C44ouoT3gUOQTjBJ)"><g style="isolation:isolate" id="アイコン"><g id="開発"><path d="M 5.229 0.75 L 35.867 0.75 C 38.339 0.75 40.346 2.757 40.346 5.229 L 40.346 22.907 C 40.346 25.379 38.339 27.386 35.867 27.386 L 5.229 27.386 C 2.757 27.386 0.75 25.379 0.75 22.907 L 0.75 5.229 C 0.75 2.757 2.757 0.75 5.229 0.75 Z" style="fill:none;stroke:#000000;stroke-width:0.5;stroke-linecap:round;stroke-miterlimit:3;"/><path d="M 2.676 28.516 L 39.017 28.516 C 40 28.516 40.798 29.314 40.798 30.297 L 40.798 30.914 C 40.798 31.896 40 32.694 39.017 32.694 L 2.676 32.694 C 1.693 32.694 0.895 31.896 0.895 30.914 L 0.895 30.297 C 0.895 29.314 1.693 28.516 2.676 28.516 Z" style="fill:none;stroke:#000000;stroke-width:0.5;stroke-linecap:round;stroke-miterlimit:3;"/><line x1="11.916" y1="13.767" x2="18.025" y2="13.767" vector-effect="non-scaling-stroke" stroke-width="0.5" stroke="rgb(0,0,0)" stroke-linejoin="miter" stroke-linecap="round" stroke-miterlimit="3"/><path d=" M 5.672 4.986 L 11.716 9.638 L 5.672 13.677" fill="none" vector-effect="non-scaling-stroke" stroke-width="0.5" stroke="rgb(0,0,0)" stroke-linejoin="miter" stroke-linecap="round" stroke-miterlimit="3"/></g></g><g style="isolation:isolate" id="実績"/></g></svg>