<?xml version="1.0" standalone="no"?><!-- Generator: Gravit.io --><svg xmlns="http://www.w3.org/2000/svg" xmlns:xlink="http://www.w3.org/1999/xlink" style="isolation:isolate" viewBox="0 0 38.98 31.945" width="38.98" height="31.945"><defs><clipPath id="_clipPath_O9qXctfsAn1j3z0mosNkgqERRsnw4Ehb"><rect width="38.98" height="31.945"/></clipPath></defs><g clip-path="url(#_clipPath_O9qXctfsAn1j3z0mosNkgqERRsnw4Ehb)"><g style="isolation:isolate" id="アイコン"><g id="PC&amp;スマホ"><path d=" M 24.963 26.379 Q 14.437 26.379 4.336 26.23 C 2.081 26.23 0.25 24.267 0.25 21.848 L 0.25 4.632 C 0.25 2.214 2.081 0.25 4.336 0.25 L 32.393 0.25 C 34.648 0.25 36.479 2.214 36.479 4.632 Q 36.479 3.09 36.479 6.446" fill="none" vector-effect="non-scaling-stroke" stroke-width="0.5" stroke="rgb(0,0,0)" stroke-linejoin="round" stroke-linecap="round" stroke-miterlimit="3"/><path d=" M 36.847 30.888 Q 36.961 31.695 36.259 31.695 Q 22.939 31.695 1.965 31.695 C 1.091 31.695 0.382 30.934 0.382 29.998 L 0.382 29.468 C 0.382 28.531 1.091 27.771 1.965 27.771 L 24.963 27.92" fill="none" vector-effect="non-scaling-stroke" stroke-width="0.5" stroke="rgb(0,0,0)" stroke-linejoin="round" stroke-linecap="round" stroke-miterlimit="3"/><path d=" M 28.764 7.751 C 28.764 7.751 32.635 7.751 36.053 7.751 C 37.255 7.751 38.23 8.727 38.23 9.928 L 38.23 27.027 C 38.23 28.228 37.255 29.204 36.053 29.204 L 28.793 29.204 C 27.591 29.204 26.616 28.228 26.616 27.027 L 26.616 9.928 C 26.616 8.727 27.578 7.751 28.764 7.751 Z " fill="none" vector-effect="non-scaling-stroke" stroke-width="0.5" stroke="rgb(0,0,0)" stroke-linejoin="miter" stroke-linecap="square" stroke-miterlimit="3"/></g></g><g style="isolation:isolate" id="実績"/></g></svg>